<?xml version="1.0" encoding="UTF-8"?>
<svg id="Layer_2" data-name="Layer 2" xmlns="http://www.w3.org/2000/svg" viewBox="0 0 1770 590">
  <defs>
    <style>
      .cls-1 {
        fill: #fff;
      }
    </style>
  </defs>
  <g id="Logotype">
    <g>
      <path class="cls-1" d="m1610,290h-90v100s-100,0-100,0c-55.23,0-100,44.77-100,100h0v90c0,5.52,4.48,10,10,10h80c5.52,0,10-4.48,10-10v-90s100,0,100,0h0c55.23,0,100-44.77,100-100v-90c0-5.52-4.48-10-10-10Z"/>
      <path class="cls-1" d="m1330,290h190v-90c0-5.52-4.48-10-10-10h-100c-49.71,0-90,40.29-90,90h0c0,5.52,4.48,10,10,10Zm80-75h85v50h-148.25c6.79-28.63,32.57-50,63.25-50Z"/>
      <rect class="cls-1" x="1670" y="390" width="100" height="200" rx="10" ry="10"/>
      <path class="cls-1" d="m1680,290h80c5.52,0,10-4.48,10-10h0c0-49.71-40.29-90-90-90h0c-5.52,0-10,4.48-10,10v80c0,5.52,4.48,10,10,10Z"/>
      <path class="cls-1" d="m760,290v200h200v100h-200c-27.62,0-52.62-11.19-70.71-29.29-18.1-18.09-29.29-43.09-29.29-70.71v-200c0-55.23,44.77-100,100-100h200v100h-200Z"/>
      <rect class="cls-1" x="1070" y="390" width="100" height="100" rx="10" ry="10"/>
      <path class="cls-1" d="m1170,290h-100c-3.38,0-6.71.17-10,.5v50.51c3.23-.66,6.58-1.01,10-1.01h100c27.57,0,50,22.43,50,50v100c0,27.57-22.43,50-50,50h-100c-27.57,0-50-22.43-50-50v-15.76c-14.29,9.72-31.48,15.49-50,15.75v.02c0,55.23,44.77,100,100,100h100c55.23,0,100-44.77,100-100v-100c0-55.23-44.77-100-100-100Z"/>
      <path class="cls-1" d="m970,480c44.18,0,80-35.82,80-80V10c0-5.52-4.48-10-10-10h0c-38.66,0-70,31.34-70,70v410h0Z"/>
      <path class="cls-1" d="m100,290v200h200v100H100c-27.62,0-52.62-11.19-70.71-29.29-18.1-18.09-29.29-43.09-29.29-70.71v-200c0-55.23,44.77-100,100-100h200v100H100Z"/>
      <rect class="cls-1" x="410" y="390" width="100" height="100" rx="10" ry="10"/>
      <path class="cls-1" d="m510,290h-100c-3.38,0-6.71.17-10,.5v50.51c3.23-.66,6.58-1.01,10-1.01h100c27.57,0,50,22.43,50,50v100c0,27.57-22.43,50-50,50h-100c-27.57,0-50-22.43-50-50v-15.76c-14.29,9.72-31.48,15.49-50,15.75v.02c0,55.23,44.77,100,100,100h100c55.23,0,100-44.77,100-100v-100c0-55.23-44.77-100-100-100Z"/>
      <path class="cls-1" d="m310,480c44.18,0,80-35.82,80-80V10c0-5.52-4.48-10-10-10h0c-38.66,0-70,31.34-70,70v410h0Z"/>
    </g>
  </g>
</svg>