<?xml version="1.0" encoding="UTF-8"?>
<svg id="Layer_2" data-name="Layer 2" xmlns="http://www.w3.org/2000/svg" viewBox="0 0 1024 1024">
  <defs>
    <style>
      .cls-1 {
        fill: #fff;
      }
    </style>
  </defs>
  <g id="Logomark">
    <path class="cls-1" d="m1007.56,375.4c-17.29-20.87-49.18-26.4-86.38-23.21h-.01c-1.18.1-2.37.21-3.57.32-5.18-37.65-15.9-76.44-34.48-115.22-70.69-147.54-212.23-205.42-223.17-209.71C600.81,4.42,546.54.09,512,0c-34.54.09-88.81,4.42-147.95,27.58-10.94,4.29-152.48,62.17-223.17,209.71-18.58,38.78-29.3,77.57-34.48,115.22-1.2-.11-2.39-.22-3.57-.32h-.01c-37.2-3.19-69.09,2.34-86.38,23.21-56.54,68.23,40,303.84,178.95,433.93h.02c35.92,33.64,74.68,60.21,114.35,75.02,64.24,64.58,129.99,107.27,173.74,132.12,17.69,10.04,39.31,10.04,57,0,43.75-24.85,109.5-67.54,173.74-132.12,39.67-14.81,78.43-41.38,114.35-75.01h.02c138.95-130.1,235.49-365.71,178.95-433.94Zm-776.05-84.45c53.42-118.73,160.4-165.31,168.67-168.76,44.7-18.64,85.71-22.12,111.82-22.19,26.11.07,67.12,3.55,111.82,22.19,8.27,3.45,115.25,50.03,168.67,168.76,12.86,28.59,20.75,57.19,24.99,85.08-40.42,13.62-77.92,30.27-102.55,42.81-44.15,22.43-99.12,58.17-147.21,101.67-19.97,18.07-39.04,37.49-55.72,57.86-16.68-20.37-35.75-39.79-55.72-57.86-48.09-43.5-103.06-79.24-147.21-101.67-24.63-12.54-62.13-29.19-102.55-42.81,4.24-27.89,12.13-56.49,24.99-85.08Zm116.64,493.66c-4.15.38-8.32.48-12.48.31-.34-.01-.67-.02-1.01-.04h0c-35.35-1.71-70.74-22.04-102.4-51.67-81.77-76.56-138.59-215.21-105.31-255.36,10.18-12.28,28.94-15.53,50.83-13.66h.01c8.48.72,17.43,2.21,26.54,4.24h0c35.54,7.93,73.43,24.1,94.82,34.98,25.98,13.21,58.33,34.24,86.63,59.83,42.91,38.83,76.5,88.19,64.32,136.79-10.79,43.05-56.22,80.47-101.94,84.58Zm185.39,133.33c-13.37,8.08-29.71,8.08-43.08,0-13.87-8.39-30.66-19.3-49.06-32.97,25.89-10.03,50.23-25.62,70.6-44.85,20.37,19.23,44.71,34.82,70.6,44.85-18.4,13.67-35.19,24.58-49.06,32.97Zm258.21-184.73c-31.66,29.63-67.05,49.96-102.4,51.67h0c-.34.02-.67.03-1.01.04-4.16.17-8.33.07-12.48-.31-45.72-4.11-91.15-41.53-101.94-84.58-12.18-48.6,21.41-97.96,64.32-136.79,28.3-25.59,60.65-46.62,86.63-59.83,21.39-10.88,59.28-27.05,94.82-34.97,9.11-2.04,18.06-3.53,26.54-4.25h.01c21.89-1.87,40.65,1.38,50.83,13.66,6.62,7.99,9.68,19.88,9.68,34.41,0,58.46-49.49,159.63-114.99,220.95Z"/>
  </g>
</svg>